<svg width="123" height="123" viewBox="0 0 123 123" fill="none" xmlns="http://www.w3.org/2000/svg">
<g clip-path="url(#clip0_107_249)">
<path fill-rule="evenodd" clip-rule="evenodd" d="M61.44 0C95.37 0 122.88 27.51 122.88 61.44C122.88 95.37 95.37 122.88 61.44 122.88C27.51 122.88 0 95.37 0 61.44C0 27.51 27.51 0 61.44 0ZM61.44 29L30.06 59.74L37.71 63.76L61.23 39.07L85.15 63.77L92.81 59.75L61.44 29ZM39.39 67.13L61.47 45.04L83.49 67.13V88.8H67.4V73.5H55.34V88.8H39.39V67.13ZM61.44 9.09C90.35 9.09 113.79 32.53 113.79 61.44C113.79 90.35 90.35 113.79 61.44 113.79C32.53 113.79 9.09 90.35 9.09 61.44C9.09 32.53 32.53 9.09 61.44 9.09Z" fill="#FEA342"/>
</g>
<defs>
<clipPath id="clip0_107_249">
<rect width="122.88" height="122.88" fill="white"/>
</clipPath>
</defs>
</svg>
